<svg width="1000" height="1000" viewBox="0 -0.625 31.25 31.25" fill="none" xmlns="http://www.w3.org/2000/svg"><path clip-rule="evenodd" d="M6.875 16.193a5.116 5.116 0 0 0 5.175 5.057h2.507a2.5 2.5 0 0 1 1.805.772l1.336 1.398a1.125 1.125 0 0 0 1.601 0l2.076-2.17.681-.76q.188-.205.409-.375a5 5 0 0 0 1.91-3.922v-6.138A5.116 5.116 0 0 0 19.2 5h-7.15a5.116 5.116 0 0 0-5.175 5.055z" stroke="#000" stroke-width="1.875" stroke-linecap="round" stroke-linejoin="round"/><path d="M20.245 15.406a.938.938 0 0 0-1.74-.7zm-1.975 1.156.593.727.004-.004zm-5.315-.037-.607.712.005.005zm-.205-1.863a.938.938 0 0 0-1.75.673zM12.813 10a.938.938 0 1 0-1.875 0zm-1.875 1.25a.938.938 0 0 0 1.875 0zM20.313 10a.938.938 0 0 0-1.875 0zm-1.875 1.25a.938.938 0 0 0 1.875 0zm.068 3.454a2.84 2.84 0 0 1-.831 1.134l1.192 1.447a4.75 4.75 0 0 0 1.379-1.881zm-.828 1.131a3.23 3.23 0 0 1-4.12-.03l-1.205 1.436a5.11 5.11 0 0 0 6.51.048zm-4.115-.026a2.9 2.9 0 0 1-.813-1.145l-1.75.671a4.75 4.75 0 0 0 1.348 1.903zM10.938 10v1.25h1.875V10zm7.5 0v1.25h1.875V10z" fill="#000"/></svg>