<svg xmlns="http://www.w3.org/2000/svg" width="800" height="800" viewBox="0 0 296.053 296.054" xml:space="preserve"><path d="M246.4 57.472c5.204-14.105 2.222-28.966-8.197-40.77l-4.143-4.705-.486 6.252c-3.138 40.416-19.854 64.944-33.782 78.641h-9.725c15.695-13.21 35.988-39.546 37.133-87.904l.036-1.563-1.357-.785a49.7 49.7 0 0 0-10.998-4.714l-3.304-.963-.098 3.436c-1.336 49.443-22.271 77.482-40.09 92.499h-10.755c16.316-11.247 42.958-38.145 43.937-94.198L204.618 0h-15.772l-.109 2.529c-2.531 54.862-29.773 82.451-46.598 94.361h-12.811l.704-.365c14.607-7.583 48.902-31.895 51.808-93.753L181.974 0H161.39l.187 2.825c.674 10.118 2.154 19.524 4.428 27.967-1.03 4.054-2.216 7.92-3.558 11.547-4.381-12.2-7.026-25.575-7.881-39.848L154.418 0H137.62l.101 2.752c.836 21.777 5.748 41.044 14.598 57.307a83 83 0 0 1-4.503 5.822c-10.423-17.869-16.145-39.151-17.015-63.32l-.09-2.556h-15.69l.021 2.672c.261 29.523 7.578 54.339 21.761 73.81a74 74 0 0 1-5.419 4.072C116.24 59.885 108.431 33.687 108.18 2.636l-.021-2.631H92.535l-.055 2.597c-1.007 50.241 18.225 78.593 34.536 93.535l.831.764h-9.564c-15.441-15.85-33.184-44.56-32.664-92.722l.036-3.5-3.376.906a49.8 49.8 0 0 0-11.496 4.714l-1.341.759v1.548c-.023 45.71 16.712 72.792 32.811 88.29H93c-18.452-20.187-28.697-46.65-30.367-78.752l-.329-6.442-4.295 4.818C47.454 28.374 44.415 43.299 49.67 57.482c8.855 23.91 24.008 37.632 30.292 42.541-7.513 4.152-12.668 12.057-12.668 21.248v54.836c0 8.793 4.699 16.426 11.671 20.702-6.775 5.521-20.891 19.051-29.295 41.757-5.255 14.188-2.216 29.111 8.339 40.964l4.295 4.815.329-6.446c1.634-31.421 11.517-57.41 29.233-77.423h9.013c-15.659 15.699-31.46 42.548-31.437 86.956v1.548l1.352.767a49.7 49.7 0 0 0 11.49 4.712l3.376.911-.036-3.5c-.502-46.842 16.262-75.29 31.39-91.394h9.411c-16.182 15.078-34.937 43.33-33.94 92.968l.054 2.599h15.625l.021-2.63c.251-31.038 8.054-57.249 23.203-77.921a70 70 0 0 1 5.419 4.07c-14.188 19.47-21.505 44.289-21.761 73.814l-.021 2.672h15.689l.091-2.553c.87-24.172 6.592-45.454 17.015-63.328a82 82 0 0 1 4.502 5.819c-8.85 16.26-13.761 35.538-14.597 57.312l.132 2.755h16.56l.147-2.496c.854-14.271 3.5-27.65 7.881-39.851 1.342 3.635 2.527 7.493 3.558 11.558-2.273 8.44-3.754 17.844-4.428 27.957l-.187 2.827h20.584l-.135-2.771c-2.797-59.569-34.665-84.274-50.062-92.792h12.205c16.901 12.583 42.311 40.146 44.754 93.041l.109 2.526h15.772l-.047-2.703c-.947-54.028-25.709-80.913-42.108-92.864h10.48c17.45 15.307 37.241 43.145 38.536 91.171l.098 3.434 3.304-.969a50 50 0 0 0 10.998-4.712l1.357-.781-.036-1.574c-1.104-46.831-20.164-72.976-35.62-86.578h9.553c13.635 13.939 29.407 38.193 32.441 77.319l.486 6.245 4.143-4.691c10.419-11.812 13.401-26.668 8.197-40.783-8.414-22.69-22.53-36.227-29.318-41.746 6.975-4.277 11.677-11.91 11.677-20.707v-54.854c0-9.188-5.157-17.099-12.677-21.251 6.295-4.914 21.462-18.639 30.321-42.536"/></svg>